<?xml version="1.0" encoding="UTF-8"?>
<svg id="Layer_2" data-name="Layer 2" xmlns="http://www.w3.org/2000/svg" viewBox="0 0 552.39 558.7">
  <defs>
    <style>
      .cls-1 {
        font-family: Professor, Professor;
        font-size: 141.69px;
      }

      .cls-2 {
        letter-spacing: .06em;
      }

      .cls-3 {
        fill-rule: evenodd;
        stroke: #000;
        stroke-miterlimit: 10;
        stroke-width: 4px;
      }
    </style>
  </defs>
  <g id="Layer_1-2" data-name="Layer 1">
    <path d="M108.24,174.43l69.07-97.1c-15.7.57-32.24,2.7-49.6,6.4-17.36,3.7-32.24,7.65-44.61,11.84-12.38,4.2-23.44,8.18-33.18,11.95-9.74,3.77-16.72,6.44-20.95,8-1.06,0-2.12-.35-3.17-1.07-1.06-.71-1.59-1.56-1.59-2.56,0-1.14,3.51-8.11,10.53-20.91s15.29-26.53,24.8-41.19c52.84-17.78,99.49-26.67,139.95-26.67,46.8,0,79.26,9.39,97.38,28.17,6.49,6.55,11.51,14.62,15.06,24.22,3.55,9.6,5.32,19.1,5.32,28.49,0,21.34-4.72,40.73-14.15,58.15-9.44,17.43-22.91,32.54-40.42,45.35-17.52,12.8-38.12,22.59-61.82,29.34-23.7,6.76-49.67,10.14-77.9,10.14-4.98,0-15.17-.85-30.57-2.56l-20.38,35c2.11,2.99,3.17,5.41,3.17,7.26,0,4.41-1.06,8.11-3.17,11.1-3.02,4.27-7.02,9.89-12,16.86-4.98,6.97-8.34,11.59-10.08,13.87-1.74,2.27-3.7,4.27-5.89,5.98-2.19,1.71-4.34,2.56-6.45,2.56-4.38,0-7.17-1.25-8.38-3.73-1.21-2.49-1.81-5.94-1.81-10.35,0-6.26,3.28-16.18,9.85-29.77,6.57-13.58,16.49-31.62,29.78-54.1-7.1-2.56-12.61-5.9-16.53-10.03-3.93-4.12-5.89-8.18-5.89-12.16,0-8.82,5.36-17,16.08-24.54,10.72-7.54,26.57-13.51,47.56-17.92ZM131.79,180.19l-12.91,20.49c5.74.29,10.83.57,15.29.85,4.45.29,8.19.43,11.21.43,26.42,0,49.33-3.34,68.73-10.03,19.4-6.69,34.8-14.97,46.2-24.86,11.4-9.89,19.66-19.81,24.8-29.77,5.13-9.96,7.7-18.28,7.7-24.97,0-9.25-3.93-16.5-11.78-21.77-7.85-5.26-19.14-8.86-33.86-10.78s-33.71-2.88-56.96-2.88c.3,1.57.45,3.49.45,5.76,0,7.4-4.15,17.15-12.46,29.24l-39.4,58.26,29.67-3.2c2.41,0,3.62,1.07,3.62,3.2,0,1.85-1.96,3.13-5.89,3.84l-34.42,6.19Z"/>
    <text class="cls-1" transform="translate(119.02 337.49) scale(.76 1)"><tspan x="0" y="0">lacemen</tspan><tspan class="cls-2" x="427.61" y="0">t</tspan></text>
    <path d="M438.72,47.4c-19.19-13.53-39.22-23.53-58.84-30.65-19.64-7.13-38.9-11.38-57.01-13.61-18.12-2.22-35.1-2.42-50.55-1.41-15.46,1.01-29.4,3.24-41.68,5.95-12.29,2.72-22.94,5.94-31.97,9.1-9.03,3.17-16.44,6.27-22.33,8.92-5.88,2.65-10.23,4.85-13.13,6.34-2.89,1.5-4.33,2.3-4.33,2.29,0,0,2.21-1.1,6.47-3.05,4.26-1.95,10.59-4.74,18.89-7.86,8.3-3.12,18.58-6.56,30.71-9.63,12.12-3.07,26.1-5.75,41.63-7.28,15.51-1.53,32.57-1.89,50.62-.33,18.04,1.55,37.06,5.05,56.24,11.08,19.17,6.02,38.49,14.57,56.93,25.94,18.44,11.34,35.96,25.5,51.6,42.2,19.54,20.82,34.87,44.38,45.79,68.67,10.95,24.29,17.54,49.25,20.65,73.05-2.59-16.52-6.06-28.61-8.58-36.6-2.56-7.98-4.18-11.9-4.16-11.91,0,0,.6,1.87,1.64,5.49,1.03,3.62,2.5,8.99,4.04,16.03,3.05,14.04,6.47,34.88,6.05,61.22-.33-22.08-3.34-44.84-9.37-66.97-6-22.13-15.04-43.59-26.67-63.15-11.61-19.58-25.79-37.22-41.41-52.25-15.6-15.06-32.63-27.48-49.73-37.16-17.1-9.71-34.25-16.68-50.09-21.53-15.86-4.86-30.41-7.61-42.6-9.19-12.21-1.58-22.07-2.01-28.84-2.15-6.77-.12-10.46,0-10.46-.01,0,.01,3.35-.09,9.7.04,6.35.15,15.71.55,27.59,2.05,11.87,1.51,26.28,4.15,42.39,9.04,16.09,4.88,33.87,12.05,52,22.53,18.11,10.46,36.54,24.27,53.53,41.88,16.99,17.57,32.5,38.94,44.45,63.8,11.97,24.82,20.33,53.11,23.48,83.4,1.58,15.14,1.86,30.75.74,46.59-1.13,15.83-3.68,31.88-7.72,47.83-4.03,15.95-9.98,33.4-18.54,51.47-8.56,18.05-19.79,36.68-34.01,54.67-14.21,17.98-31.42,35.33-51.37,50.67-19.94,15.32-42.66,28.59-67.34,38.48-24.65,9.92-51.22,16.45-78.32,18.87-27.09,2.43-54.7.73-81.21-5.26-26.52-5.95-51.9-16.21-74.69-30.14-22.81-13.91-42.99-31.49-59.7-51.37-16.73-19.88-29.91-42.13-39.28-65.25-9.39-23.13-14.99-47.08-17.28-70.44-2.32-23.37-1.36-46.13,1.89-67.23,3.25-21.12,8.8-40.58,15.46-57.83,6.67-17.26,14.44-32.31,22.15-45.03,7.72-12.73,15.38-23.13,21.99-31.35,6.62-8.22,12.2-14.28,16.04-18.34,3.85-4.04,5.97-6.09,5.96-6.1.01.01-2.9,2.78-8.09,8.27-5.17,5.5-12.6,13.75-21.1,25.05-8.48,11.29-17.99,25.66-26.85,43.22-8.86,17.53-17.02,38.28-22.6,61.68C1.94,253.45-1.02,279.47.32,306.69c1.31,27.19,6.94,55.56,17.84,82.87,10.85,27.31,27,53.47,47.94,76.12,20.89,22.68,46.51,41.86,75.29,55.55-11.43-5.23-19.98-10.14-25.7-13.61-5.72-3.48-8.65-5.5-8.66-5.49,0,0,1.47,1.08,4.32,3.05,2.85,1.96,7.09,4.81,12.71,8.19,11.23,6.74,28.11,15.72,50.48,23.08,11.17,3.68,23.7,6.93,37.39,9.26,13.69,2.33,28.56,3.72,44.27,3.74,15.7.02,32.25-1.33,49.17-4.39,16.91-3.05,34.19-7.8,51.25-14.37-20.61,8.38-40.23,13.6-57.71,16.75-17.5,3.15-32.86,4.24-45.43,4.46-12.58.21-22.38-.45-29.01-1.03-6.64-.6-10.14-1.1-10.14-1.08,0-.03,4.89.91,14,1.95,9.1,1.01,22.47,2.07,39.34,1.51,16.84-.56,37.21-2.8,59.67-8.51,22.44-5.66,46.95-14.87,71.26-28.59-21.87,12.85-45.26,22.8-68.94,29.5-23.68,6.74-47.61,10.25-70.63,10.85-23.03.63-45.12-1.67-65.41-6.07-20.3-4.4-38.79-10.91-55.01-18.46-16.23-7.55-30.2-16.12-41.9-24.57-11.7-8.45-21.13-16.77-28.53-23.95-7.4-7.19-12.78-13.26-16.37-17.45-3.58-4.2-5.39-6.53-5.39-6.52,0,0,1.25,1.62,3.71,4.61,2.46,2.99,6.15,7.35,11.17,12.7,10.03,10.65,25.46,25.39,47.4,39.65,10.96,7.12,23.52,14.08,37.64,20.21,14.12,6.13,29.78,11.44,46.74,15.29,16.95,3.84,35.18,6.25,54.21,6.7,19.02.45,38.84-1.01,58.81-4.72,19.96-3.71,40.08-9.59,59.59-17.74,19.5-8.14,38.43-18.45,56.01-30.7,17.6-12.24,33.9-26.31,48.41-41.68,14.52-15.37,27.29-32.02,37.97-49.31,10.68-17.29,19.32-35.16,25.94-52.9,6.61-17.75,11.22-35.35,14.16-52.18,2.92-16.84,4.16-32.9,4.22-47.73.07-14.84-1.08-28.44-2.83-40.52-3.48-24.18-10.19-47.06-19.26-67.85-9.09-20.79-20.54-39.47-33.3-55.69-12.76-16.23-26.77-30.02-41.01-41.49-14.25-11.48-28.75-20.62-42.59-27.8-13.85-7.18-27.03-12.42-38.85-16.29-11.83-3.87-22.3-6.37-30.92-8.08-8.63-1.71-15.42-2.63-20.03-3.19-4.61-.55-7.05-.75-7.05-.76,0,0,2.81.25,7.94.91,5.13.66,12.58,1.77,21.78,3.74,9.2,1.97,20.15,4.83,32.13,9.06,11.98,4.23,25,9.82,38.22,17.09,13.22,7.26,26.63,16.21,39.39,26.8,12.76,10.58,24.88,22.78,35.68,36.24,10.81,13.45,20.27,28.16,27.97,43.45,7.72,15.28,13.66,31.13,17.85,46.69-7.23-22.95-16.59-41.51-25.66-56.21-17.88-31.42-43.26-59.38-73.11-80.37Z"/>
    <g>
      <path class="cls-3" d="M267.44,386.7c.85.02,6.48,1.43,3.34,9.46,0,0,4,1.46,5.75-2.09,1.74-3.52-.92-10.22-8.88-10.33-.07,0-.14,0-.21,0-2.48,0-4.73,1.1-6.36,2.87-1.63,1.77-2.64,4.22-2.64,6.92,0,4.38,1.63,8.34,4.27,11.21,2.64,2.87,6.28,4.64,10.31,4.64s7.67-1.78,10.31-4.64c2.64-2.87,4.27-6.83,4.27-11.21,0-2.73-.64-5.3-1.76-7.56-.55-1.09-1.21-2.11-1.96-3.03h33.97c-5.49,10.4-13.97,19.21-24.43,25.49-10.86,6.53-23.85,10.32-37.81,10.32-13.96,0-26.94-3.79-37.81-10.32-10.46-6.28-18.94-15.1-24.43-25.49h33.97c-.76.92-1.42,1.93-1.96,3.03-1.13,2.25-1.76,4.83-1.76,7.56,0,4.38,1.63,8.34,4.27,11.21,2.64,2.87,6.28,4.64,10.31,4.64s7.67-1.78,10.31-4.64c2.64-2.87,4.27-6.83,4.27-11.21,0-2.7-1.01-5.15-2.64-6.92-1.63-1.77-3.88-2.87-6.36-2.87-.07,0-.14,0-.21,0-7.96.11-10.62,6.82-8.88,10.33,1.75,3.55,5.75,2.09,5.75,2.09-3.14-8.03,2.48-9.45,3.34-9.46,1.73,0,3.3.76,4.44,2s1.84,2.94,1.84,4.83c0,3.56-1.33,6.79-3.47,9.12-2.14,2.33-5.11,3.78-8.38,3.78s-6.24-1.44-8.38-3.78c-2.15-2.33-3.47-5.56-3.47-9.12,0-2.23.52-4.33,1.43-6.15,2.04-4.09,5.04-5.3,8.58-7.39h-45.26s-2.24,0-2.24,0l1.03,2.16c5.66,11.85,14.98,21.88,26.62,28.88,11.25,6.76,24.69,10.69,39.11,10.69,14.43,0,27.86-3.93,39.11-10.69,11.65-7,20.96-17.03,26.62-28.88l1.03-2.16h-2.24s-45.26,0-45.26,0c3.55,2.09,6.54,3.3,8.58,7.39.91,1.82,1.43,3.91,1.43,6.15,0,3.56-1.33,6.79-3.47,9.12-2.15,2.33-5.11,3.78-8.38,3.78s-6.24-1.44-8.38-3.78c-2.15-2.33-3.47-5.56-3.47-9.12,0-1.89.7-3.6,1.84-4.83s2.71-2,4.44-2Z"/>
      <path class="cls-3" d="M255.59,464c0-3.54,1.56-7.77,4.24-10.03,5.97-5.02,15.94-3.69,15.94,5.17,0,5.06-3.06,6.2-4.19,6.33.47-7.47-2.66-10.12-5.48-10.12-3.64,0-6.42,2.73-6.42,6.62,0,5,5.03,9.23,10.22,10.03,0,0-2.03,3.41-7.94,3.15.22-.35.35-.78.35-1.23,0-1.21-.9-2.19-2.01-2.19s-2.01.98-2.01,2.19.82,2.1,1.85,2.19l-4.57,26.34-4.57-26.34c1.04-.09,1.85-1.03,1.85-2.19s-.9-2.19-2.01-2.19-2.01.98-2.01,2.19c0,.46.13.88.35,1.23-5.92.26-7.94-3.15-7.94-3.15,5.19-.8,10.22-5.04,10.22-10.03,0-3.9-2.78-6.62-6.42-6.62-2.81,0-5.95,2.65-5.48,10.12-1.12-.13-4.19-1.27-4.19-6.33,0-8.87,9.97-10.19,15.94-5.17,2.69,2.26,4.24,6.49,4.24,10.03Z"/>
      <path class="cls-3" d="M397.35,362.53c1.66,6.49-6.36,8.73-6.36,8.73,0,0,2.5,5.3,8.56,3.46,3.59-1.09,5.24-4.16,5.1-7.57-.68-16.36-32.62-18.4-38.22,1.84h-110.85s-110.85,0-110.85,0c-5.61-20.24-37.54-18.2-38.22-1.84-.14,3.42,1.51,6.49,5.1,7.57,6.07,1.84,8.56-3.46,8.56-3.46,0,0-8.02-2.24-6.36-8.73,2.21-8.61,25.89-7.03,28.53,8.2l.21,1.21h1.12s111.9,0,111.9,0h111.9s1.12,0,1.12,0l.21-1.21c2.64-15.23,26.32-16.82,28.53-8.2Z"/>
      <g>
        <path class="cls-3" d="M90.68,353.46c-6.81,0-15.83.64-22.63.64-9.65-.01-19.3-.02-28.95-.04,10.33,3.15,20.6,6.73,30.24,14.64,0,0,6.5-13.73,21.35-15.25Z"/>
        <path class="cls-3" d="M420.51,353.46c6.81,0,15.83.64,22.63.64,9.65-.01,19.3-.02,28.95-.04-10.33,3.15-20.6,6.73-30.24,14.64,0,0-6.5-13.73-21.35-15.25Z"/>
        <path class="cls-3" d="M406.69,357.02h-151.1s-151.1,0-151.1,0c-6.84,0-19.64,4.02-19.64,13.16,0,9.94,11.5,8.96,11.5,8.96,0,0-.49,8.08-9.79,8.08-17.04,0-16.1-33.82,18.95-33.16h150.08s150.08,0,150.08,0c35.05-.66,35.99,33.16,18.95,33.16-9.3,0-9.79-8.08-9.79-8.08,0,0,11.5.98,11.5-8.96,0-9.14-12.81-13.16-19.64-13.16Z"/>
      </g>
      <path class="cls-3" d="M358.75,379.99c-2.87,2.55-9.54,9.67-13.02,6.54-3.13-2.82.43-6.83.43-6.83,0,0-3.19-2.3-5.82,1.16-4,5.27,3.94,13.21,11.84,8.09-5.21,12.62-13.28,23.96-23.47,33.34-18.7,17.21-44.55,27.86-73.12,27.86-28.57,0-54.42-10.65-73.12-27.86-10.19-9.38-18.25-20.72-23.47-33.34,7.9,5.12,15.84-2.82,11.84-8.09-2.63-3.47-5.82-1.16-5.82-1.16,0,0,3.57,4.01.43,6.83-3.48,3.13-10.15-3.99-13.02-6.54,4.83,17.31,14.64,32.77,27.94,45.01.37.34.74.67,1.11,1.01-1.3.3-2.39,1.04-3.03,2.23-.78,1.45-1.41,3.79.14,6.37,0,0,1.77-6.14,6.87-4.58.66.2,1.25.47,1.78.78h0s0,0,0,0c18.49,14.29,42.33,22.9,68.34,22.9,26.15,0,50.11-8.7,68.64-23.14.41-.21.86-.39,1.35-.54,5.11-1.56,6.87,4.58,6.87,4.58,1.54-2.58.92-4.92.14-6.37-.62-1.15-1.67-1.89-2.93-2.2.38-.34.76-.69,1.14-1.03,13.3-12.24,23.1-27.7,27.94-45.01Z"/>
    </g>
  </g>
</svg>